# xmcd
#
# Track frame offsets:
#	150
#	13211
#	31990
#	43272
#	61788
#	85241
#	100815
#	122156
#	139140
#	155852
#	175789
#	190144
#
# Disc length: 2823 seconds
# Revision: 1
# Processed by: cddbd v1.5.2PL0 Copyright (c) Steve Scherf et al.
# Submitted via: dBpowerAMP V12.0
#
DISCID=a20b050c
DTITLE=Finders and Youngberg - Keep Your Suitcase Packed
DYEAR=2008
DGENRE=Bluegrass
TTITLE0=Iowa Winter
TTITLE1=Ball and Chain Blues
TTITLE2=Go Ahead and Leave
TTITLE3=Old Shine Crow
TTITLE4=Same Old Me, Same Old You
TTITLE5=Perfect Little Life
TTITLE6=Roots Run Deep
TTITLE7=Broke Down Daddy Blues
TTITLE8=Thinkin' I Didn't Know
TTITLE9=Moonlight on the Colorado
TTITLE10=Cold Hard Rain
TTITLE11=Bushel Basket
EXTD=
EXTT0=
EXTT1=
EXTT2=
EXTT3=
EXTT4=
EXTT5=
EXTT6=
EXTT7=
EXTT8=
EXTT9=
EXTT10=
EXTT11=
PLAYORDER=
